<?xml version="1.0" encoding="UTF-8"?><svg id="Layer_1" xmlns="http://www.w3.org/2000/svg" viewBox="0 0 2000 500"><rect width="2000" height="500" fill="#fff" stroke="#000" stroke-miterlimit="10"/><path d="M657.127,243.299h.901c5.398-6.526,13.048-14.584,19.349-21.108l63.896-64.091h47.699l-84.146,76.371,95.845,109.378h-48.148l-75.146-89.037-20.25,19.189v69.847h-39.148V71.364h39.148v171.934h0Z"/><path d="M838.018,158.1l47.697,109.761c4.951,12.279,10.349,26.865,13.949,37.994h.901c4.05-11.129,8.549-25.331,13.949-38.763l43.198-108.992h41.849l-59.398,132.404c-28.348,63.71-47.699,96.328-74.696,116.287-19.351,14.583-38.699,20.339-48.6,21.874l-9.899-28.4c9.899-2.684,22.949-8.06,34.649-16.501,10.8-7.291,24.298-20.339,33.298-37.61,1.8-3.457,3.149-6.141,3.149-8.06s-.899-4.607-2.699-8.829l-80.546-171.163h43.198v-.002Z"/><path d="M1024.313,216.049c0-21.876-.45-40.681-1.798-57.949h34.647l1.351,36.458h1.798c9.899-24.946,33.75-40.681,60.297-40.681,4.501,0,7.65.385,11.25,1.152v31.853c-4.05-.767-8.101-1.152-13.499-1.152-27.898,0-47.699,18.038-53.097,43.367-.901,4.607-1.802,9.979-1.802,15.736v99.016h-39.148v-127.8h.001Z"/><path d="M1352.808,249.44c0,68.694-55.8,98.632-108.446,98.632-58.949,0-104.396-36.844-104.396-95.563,0-62.173,47.699-98.632,107.996-98.632,62.549,0,104.846,38.762,104.846,95.563h0ZM1180.015,251.359c0,40.679,27.448,71.382,66.145,71.382,37.8,0,66.149-30.319,66.149-72.151,0-31.47-18.45-71.384-65.248-71.384s-67.046,36.843-67.046,72.153h0Z"/><path d="M1391.512,208.373c0-19.188-.45-34.924-1.798-50.273h35.098l2.249,30.701h.901c10.8-17.653,35.999-34.924,71.997-34.924,30.146,0,76.945,15.352,76.945,79.058v110.914h-39.598v-107.076c0-29.934-13.048-54.88-50.394-54.88-26.1,0-46.351,15.736-53.101,34.541-1.798,4.221-2.699,9.977-2.699,15.734v111.682h-39.598v-135.476h-.002Z"/><path d="M1674.106,105.905c.447,11.514-9.452,20.724-25.199,20.724-13.949,0-23.851-9.21-23.851-20.724,0-11.898,10.349-21.108,24.749-21.108,14.85,0,24.302,9.21,24.302,21.108h-.001ZM1630.007,343.849v-185.75h39.598v185.75h-39.598Z"/><path d="M1742.507,158.1l31.047,39.911c8.101,10.362,14.85,19.957,22.05,30.319h1.351c7.2-11.129,14.399-20.724,21.599-30.701l30.597-39.529h42.748l-74.246,89.806,76.498,95.944h-45l-31.948-41.832c-8.551-10.745-15.751-21.108-23.397-32.238h-.901c-7.2,11.129-14.85,21.108-22.95,32.238l-31.498,41.832h-43.649l77.399-94.794-73.799-90.956h44.099,0Z"/><path d="M257.632,483.869h0c-21.615-11.58-30.117-38.194-18.893-59.144L403.123,117.88c11.223-20.95,38.091-28.616,59.705-17.037h0c21.615,11.58,30.117,38.194,18.893,59.144l-164.384,306.845c-11.223,20.95-38.091,28.616-59.705,17.037h0Z" stroke="#fff" stroke-miterlimit="10"/><rect x="29.247" y="205.811" width="377.102" height="85.297" rx="42.648" ry="42.648" transform="translate(-104.063 323.114) rotate(-61.821)"/><path d="M348.692,81.242h0c11.344,14.8,11.344,35.371,0,50.171h0c-7.803,10.18-19.9,16.15-32.727,16.15h-22.518c-12.827,0-24.924-5.969-32.727-16.15h0c-11.344-14.8-11.344-35.371,0-50.171h0c7.803-10.18,19.9-16.15,32.727-16.15h22.518c12.827,0,24.924,5.969,32.727,16.15Z"/><rect x="168.001" y="307.877" width="71.49" height="212.494" rx="35.745" ry="35.745" transform="translate(-257.509 398.161) rotate(-61.821)"/><rect x="455.349" y="5.82" width="67.196" height="84.33" rx="33.598" ry="33.598" transform="translate(237.375 469.984) rotate(-64.804)"/><rect x="197.256" y="330.971" width="49.881" height="124.748" transform="translate(-229.455 403.458) rotate(-61.821)"/><path d="M376.187,125.703l-17.944-36.676c-10.309-21.07-35.982-29.874-57.052-19.565s-29.874,35.983-19.566,57.053l44.93,91.831,49.632-92.644h0Z"/><path d="M517.714,414.97l-70.895-144.9-49.632,92.644,43.909,89.744c10.309,21.07,35.982,29.874,57.052,19.565h0c21.07-10.309,29.874-35.983,19.565-57.053h0Z"/></svg>